<?xml version="1.0" encoding="UTF-8" standalone="no"?>
<!DOCTYPE svg PUBLIC "-//W3C//DTD SVG 1.1//EN"
 "http://www.w3.org/Graphics/SVG/1.1/DTD/svg11.dtd">
<!-- Generated by graphviz version 15.1.1 (20260805.0921)
 -->
<!-- Pages: 1 -->
<svg width="976pt" height="127pt"
 viewBox="0.00 0.00 976.00 127.00" xmlns="http://www.w3.org/2000/svg" xmlns:xlink="http://www.w3.org/1999/xlink">
<g id="graph0" class="graph" transform="scale(1 1) rotate(0) translate(4 123)">
<polygon fill="white" stroke="none" points="-4,4 -4,-123 971.75,-123 971.75,4 -4,4"/>
<!-- 4300635216 -->
<g id="node1" class="node">
<title>4300635216</title>
<polygon fill="none" stroke="black" points="745.5,-54.5 745.5,-90.5 967.75,-90.5 967.75,-54.5 745.5,-54.5"/>
<text xml:space="preserve" text-anchor="middle" x="756.88" y="-67.7" font-family="Times,serif" font-size="14.00">g</text>
<polyline fill="none" stroke="black" points="768.25,-55 768.25,-90.5"/>
<text xml:space="preserve" text-anchor="middle" x="805.5" y="-67.7" font-family="Times,serif" font-size="14.00">value = 45</text>
<polyline fill="none" stroke="black" points="842.75,-55 842.75,-90.5"/>
<text xml:space="preserve" text-anchor="middle" x="868.75" y="-67.7" font-family="Times,serif" font-size="14.00">op = *</text>
<polyline fill="none" stroke="black" points="894.75,-55 894.75,-90.5"/>
<text xml:space="preserve" text-anchor="middle" x="931.25" y="-67.7" font-family="Times,serif" font-size="14.00">grad = 0.0</text>
</g>
<!-- 4300634256 -->
<g id="node2" class="node">
<title>4300634256</title>
<polygon fill="none" stroke="black" points="0.38,-82.5 0.38,-118.5 204.62,-118.5 204.62,-82.5 0.38,-82.5"/>
<text xml:space="preserve" text-anchor="middle" x="11.38" y="-95.7" font-family="Times,serif" font-size="14.00">a</text>
<polyline fill="none" stroke="black" points="22.38,-83 22.38,-118.5"/>
<text xml:space="preserve" text-anchor="middle" x="56.25" y="-95.7" font-family="Times,serif" font-size="14.00">value = 2</text>
<polyline fill="none" stroke="black" points="90.12,-83 90.12,-118.5"/>
<text xml:space="preserve" text-anchor="middle" x="110.88" y="-95.7" font-family="Times,serif" font-size="14.00">op =</text>
<polyline fill="none" stroke="black" points="131.62,-83 131.62,-118.5"/>
<text xml:space="preserve" text-anchor="middle" x="168.12" y="-95.7" font-family="Times,serif" font-size="14.00">grad = 0.0</text>
</g>
<!-- 4300634400 -->
<g id="node4" class="node">
<title>4300634400</title>
<polygon fill="none" stroke="black" points="241,-55.5 241,-91.5 457.25,-91.5 457.25,-55.5 241,-55.5"/>
<text xml:space="preserve" text-anchor="middle" x="252" y="-68.7" font-family="Times,serif" font-size="14.00">c</text>
<polyline fill="none" stroke="black" points="263,-56 263,-91.5"/>
<text xml:space="preserve" text-anchor="middle" x="296.88" y="-68.7" font-family="Times,serif" font-size="14.00">value = 5</text>
<polyline fill="none" stroke="black" points="330.75,-56 330.75,-91.5"/>
<text xml:space="preserve" text-anchor="middle" x="357.5" y="-68.7" font-family="Times,serif" font-size="14.00">op = +</text>
<polyline fill="none" stroke="black" points="384.25,-56 384.25,-91.5"/>
<text xml:space="preserve" text-anchor="middle" x="420.75" y="-68.7" font-family="Times,serif" font-size="14.00">grad = 0.0</text>
</g>
<!-- 4300634256&#45;&gt;4300634400 -->
<g id="edge1" class="edge">
<title>4300634256&#45;&gt;4300634400</title>
<path fill="none" stroke="black" d="M205.12,-89.28C213.06,-88.41 221.12,-87.52 229.16,-86.63"/>
<polygon fill="black" stroke="black" points="229.44,-90.12 239,-85.54 228.67,-83.16 229.44,-90.12"/>
</g>
<!-- 4300634352 -->
<g id="node3" class="node">
<title>4300634352</title>
<polygon fill="none" stroke="black" points="0,-27.5 0,-63.5 205,-63.5 205,-27.5 0,-27.5"/>
<text xml:space="preserve" text-anchor="middle" x="11.38" y="-40.7" font-family="Times,serif" font-size="14.00">b</text>
<polyline fill="none" stroke="black" points="22.75,-28 22.75,-63.5"/>
<text xml:space="preserve" text-anchor="middle" x="56.62" y="-40.7" font-family="Times,serif" font-size="14.00">value = 3</text>
<polyline fill="none" stroke="black" points="90.5,-28 90.5,-63.5"/>
<text xml:space="preserve" text-anchor="middle" x="111.25" y="-40.7" font-family="Times,serif" font-size="14.00">op =</text>
<polyline fill="none" stroke="black" points="132,-28 132,-63.5"/>
<text xml:space="preserve" text-anchor="middle" x="168.5" y="-40.7" font-family="Times,serif" font-size="14.00">grad = 0.0</text>
</g>
<!-- 4300634352&#45;&gt;4300634400 -->
<g id="edge2" class="edge">
<title>4300634352&#45;&gt;4300634400</title>
<path fill="none" stroke="black" d="M205.47,-57.17C213.4,-58.08 221.45,-59 229.48,-59.92"/>
<polygon fill="black" stroke="black" points="228.96,-63.38 239.29,-61.04 229.76,-56.43 228.96,-63.38"/>
</g>
<!-- 4300634544 -->
<g id="node7" class="node">
<title>4300634544</title>
<polygon fill="none" stroke="black" points="493.25,-27.5 493.25,-63.5 709.5,-63.5 709.5,-27.5 493.25,-27.5"/>
<text xml:space="preserve" text-anchor="middle" x="504.25" y="-40.7" font-family="Times,serif" font-size="14.00">e</text>
<polyline fill="none" stroke="black" points="515.25,-28 515.25,-63.5"/>
<text xml:space="preserve" text-anchor="middle" x="549.12" y="-40.7" font-family="Times,serif" font-size="14.00">value = 9</text>
<polyline fill="none" stroke="black" points="583,-28 583,-63.5"/>
<text xml:space="preserve" text-anchor="middle" x="609.75" y="-40.7" font-family="Times,serif" font-size="14.00">op = +</text>
<polyline fill="none" stroke="black" points="636.5,-28 636.5,-63.5"/>
<text xml:space="preserve" text-anchor="middle" x="673" y="-40.7" font-family="Times,serif" font-size="14.00">grad = 0.0</text>
</g>
<!-- 4300634400&#45;&gt;4300634544 -->
<g id="edge5" class="edge">
<title>4300634400&#45;&gt;4300634544</title>
<path fill="none" stroke="black" d="M457.71,-61.46C465.63,-60.58 473.65,-59.68 481.63,-58.79"/>
<polygon fill="black" stroke="black" points="481.83,-62.29 491.38,-57.7 481.05,-55.33 481.83,-62.29"/>
</g>
<!-- 4300634448 -->
<g id="node5" class="node">
<title>4300634448</title>
<polygon fill="none" stroke="black" points="246.62,-0.5 246.62,-36.5 451.62,-36.5 451.62,-0.5 246.62,-0.5"/>
<text xml:space="preserve" text-anchor="middle" x="258" y="-13.7" font-family="Times,serif" font-size="14.00">d</text>
<polyline fill="none" stroke="black" points="269.38,-1 269.38,-36.5"/>
<text xml:space="preserve" text-anchor="middle" x="303.25" y="-13.7" font-family="Times,serif" font-size="14.00">value = 4</text>
<polyline fill="none" stroke="black" points="337.12,-1 337.12,-36.5"/>
<text xml:space="preserve" text-anchor="middle" x="357.88" y="-13.7" font-family="Times,serif" font-size="14.00">op =</text>
<polyline fill="none" stroke="black" points="378.62,-1 378.62,-36.5"/>
<text xml:space="preserve" text-anchor="middle" x="415.12" y="-13.7" font-family="Times,serif" font-size="14.00">grad = 0.0</text>
</g>
<!-- 4300634448&#45;&gt;4300634544 -->
<g id="edge3" class="edge">
<title>4300634448&#45;&gt;4300634544</title>
<path fill="none" stroke="black" d="M451.91,-29.48C461.74,-30.54 471.77,-31.62 481.75,-32.7"/>
<polygon fill="black" stroke="black" points="481.15,-36.16 491.47,-33.75 481.9,-29.2 481.15,-36.16"/>
</g>
<!-- 4300634496 -->
<g id="node6" class="node">
<title>4300634496</title>
<polygon fill="none" stroke="black" points="500,-82.5 500,-118.5 702.75,-118.5 702.75,-82.5 500,-82.5"/>
<text xml:space="preserve" text-anchor="middle" x="510.25" y="-95.7" font-family="Times,serif" font-size="14.00">f</text>
<polyline fill="none" stroke="black" points="520.5,-83 520.5,-118.5"/>
<text xml:space="preserve" text-anchor="middle" x="554.38" y="-95.7" font-family="Times,serif" font-size="14.00">value = 5</text>
<polyline fill="none" stroke="black" points="588.25,-83 588.25,-118.5"/>
<text xml:space="preserve" text-anchor="middle" x="609" y="-95.7" font-family="Times,serif" font-size="14.00">op =</text>
<polyline fill="none" stroke="black" points="629.75,-83 629.75,-118.5"/>
<text xml:space="preserve" text-anchor="middle" x="666.25" y="-95.7" font-family="Times,serif" font-size="14.00">grad = 0.0</text>
</g>
<!-- 4300634496&#45;&gt;4300635216 -->
<g id="edge6" class="edge">
<title>4300634496&#45;&gt;4300635216</title>
<path fill="none" stroke="black" d="M703.19,-89.35C713.32,-88.23 723.68,-87.09 734,-85.95"/>
<polygon fill="black" stroke="black" points="734.1,-89.46 743.66,-84.88 733.33,-82.5 734.1,-89.46"/>
</g>
<!-- 4300634544&#45;&gt;4300635216 -->
<g id="edge4" class="edge">
<title>4300634544&#45;&gt;4300635216</title>
<path fill="none" stroke="black" d="M709.78,-56.95C717.75,-57.8 725.82,-58.66 733.87,-59.52"/>
<polygon fill="black" stroke="black" points="733.4,-62.99 743.72,-60.57 734.14,-56.03 733.4,-62.99"/>
</g>
</g>
</svg>
